<svg xmlns="http://www.w3.org/2000/svg" version="1.1" width="720" height="720" style="background: #AAAAAA"><polygon points="558,340 526,358 528,354 560,336 " style="fill:#303000;stroke:none"/><polygon points="560,336 528,354 530,354 562,336 " style="fill:#303000;stroke:none"/><polygon points="562,336 530,354 531,359 564,340 " style="fill:#303000;stroke:none"/><polygon points="564,340 531,359 530,366 564,347 " style="fill:#303000;stroke:none"/><polygon points="526,358 487,359 490,355 528,354 " style="fill:#303000;stroke:none"/><polygon points="528,354 490,355 491,355 530,354 " style="fill:#303000;stroke:none"/><polygon points="530,354 491,355 491,360 531,359 " style="fill:#303000;stroke:none"/><polygon points="531,359 491,360 488,367 530,366 " style="fill:#303000;stroke:none"/><polygon points="487,359 445,345 448,340 490,355 " style="fill:#313100;stroke:none"/><polygon points="490,355 448,340 449,340 491,355 " style="fill:#313100;stroke:none"/><polygon points="491,355 449,340 447,344 491,360 " style="fill:#313100;stroke:none"/><polygon points="491,360 447,344 443,351 488,367 " style="fill:#313100;stroke:none"/><polygon points="445,345 405,314 409,310 448,340 " style="fill:#313100;stroke:none"/><polygon points="448,340 409,310 409,310 449,340 " style="fill:#313100;stroke:none"/><polygon points="449,340 409,310 406,313 447,344 " style="fill:#313100;stroke:none"/><polygon points="447,344 406,313 400,319 443,351 " style="fill:#323200;stroke:none"/><polygon points="405,314 372,272 378,269 409,310 " style="fill:#323200;stroke:none"/><polygon points="409,310 378,269 378,269 409,310 " style="fill:#323200;stroke:none"/><polygon points="409,310 378,269 374,272 406,313 " style="fill:#323200;stroke:none"/><polygon points="406,313 374,272 368,276 400,319 " style="fill:#323200;stroke:none"/><polygon points="372,272 357,230 363,228 378,269 " style="fill:#323200;stroke:none"/><polygon points="378,269 363,228 363,228 378,269 " style="fill:#323200;stroke:none"/><polygon points="378,269 363,228 359,228 374,272 " style="fill:#323200;stroke:none"/><polygon points="374,272 359,228 352,231 368,276 " style="fill:#333300;stroke:none"/><polygon points="357,230 360,192 365,190 363,228 " style="fill:#333300;stroke:none"/><polygon points="363,228 365,190 365,188 363,228 " style="fill:#333300;stroke:none"/><polygon points="363,228 365,188 360,188 359,228 " style="fill:#333300;stroke:none"/><polygon points="359,228 360,188 353,189 352,231 " style="fill:#333300;stroke:none"/><polygon points="360,192 379,161 383,159 365,190 " style="fill:#333300;stroke:none"/><polygon points="365,190 383,159 383,157 365,188 " style="fill:#333300;stroke:none"/><polygon points="365,188 383,157 379,155 360,188 " style="fill:#343400;stroke:none"/><polygon points="360,188 379,155 372,155 353,189 " style="fill:#343400;stroke:none"/><polygon points="379,161 410,143 414,142 383,159 " style="fill:#343400;stroke:none"/><polygon points="383,159 414,142 415,139 383,157 " style="fill:#343400;stroke:none"/><polygon points="383,157 415,139 412,136 379,155 " style="fill:#343400;stroke:none"/><polygon points="379,155 412,136 406,136 372,155 " style="fill:#343400;stroke:none"/><polygon points="410,143 449,142 453,141 414,142 " style="fill:#343400;stroke:none"/><polygon points="414,142 453,141 454,138 415,139 " style="fill:#343400;stroke:none"/><polygon points="415,139 454,138 452,135 412,136 " style="fill:#353500;stroke:none"/><polygon points="412,136 452,135 448,135 406,136 " style="fill:#353500;stroke:none"/><polygon points="449,142 491,157 494,155 453,141 " style="fill:#353500;stroke:none"/><polygon points="453,141 494,155 496,153 454,138 " style="fill:#353500;stroke:none"/><polygon points="454,138 496,153 496,151 452,135 " style="fill:#353500;stroke:none"/><polygon points="452,135 496,151 493,151 448,135 " style="fill:#353500;stroke:none"/><polygon points="491,157 531,188 534,185 494,155 " style="fill:#353500;stroke:none"/><polygon points="494,155 534,185 536,183 496,153 " style="fill:#363600;stroke:none"/><polygon points="496,153 536,183 537,182 496,151 " style="fill:#363600;stroke:none"/><polygon points="496,151 537,182 536,183 493,151 " style="fill:#363600;stroke:none"/><polygon points="531,188 562,228 564,225 534,185 " style="fill:#363600;stroke:none"/><polygon points="534,185 564,225 566,223 536,183 " style="fill:#363600;stroke:none"/><polygon points="536,183 566,223 568,223 537,182 " style="fill:#363600;stroke:none"/><polygon points="537,182 568,223 568,226 536,183 " style="fill:#363600;stroke:none"/><polygon points="562,228 577,270 578,266 564,225 " style="fill:#373700;stroke:none"/><polygon points="564,225 578,266 581,265 566,223 " style="fill:#373700;stroke:none"/><polygon points="566,223 581,265 584,267 568,223 " style="fill:#373700;stroke:none"/><polygon points="568,223 584,267 584,271 568,226 " style="fill:#373700;stroke:none"/><polygon points="577,270 576,309 577,305 578,266 " style="fill:#373700;stroke:none"/><polygon points="578,266 577,305 580,304 581,265 " style="fill:#373700;stroke:none"/><polygon points="581,265 580,304 583,307 584,267 " style="fill:#373700;stroke:none"/><polygon points="584,267 583,307 583,313 584,271 " style="fill:#373700;stroke:none"/><polygon points="576,309 558,340 560,336 577,305 " style="fill:#383800;stroke:none"/><polygon points="577,305 560,336 562,336 580,304 " style="fill:#383800;stroke:none"/><polygon points="580,304 562,336 564,340 583,307 " style="fill:#383800;stroke:none"/><polygon points="583,307 564,340 564,347 583,313 " style="fill:#383800;stroke:none"/><polygon points="564,347 530,366 520,398 558,376 " style="fill:#383800;stroke:none"/><polygon points="558,376 520,398 509,428 551,404 " style="fill:#383800;stroke:none"/><polygon points="551,404 509,428 497,453 541,428 " style="fill:#383800;stroke:none"/><polygon points="541,428 497,453 483,472 528,447 " style="fill:#393900;stroke:none"/><polygon points="530,366 488,367 473,399 520,398 " style="fill:#393900;stroke:none"/><polygon points="520,398 473,399 457,429 509,428 " style="fill:#393900;stroke:none"/><polygon points="509,428 457,429 442,455 497,453 " style="fill:#393900;stroke:none"/><polygon points="497,453 442,455 427,474 483,472 " style="fill:#393900;stroke:none"/><polygon points="488,367 443,351 422,381 473,399 " style="fill:#393900;stroke:none"/><polygon points="473,399 422,381 402,409 457,429 " style="fill:#393900;stroke:none"/><polygon points="457,429 402,409 384,434 442,455 " style="fill:#393900;stroke:none"/><polygon points="442,455 384,434 367,452 427,474 " style="fill:#404000;stroke:none"/><polygon points="443,351 400,319 374,345 422,381 " style="fill:#404000;stroke:none"/><polygon points="422,381 374,345 349,370 402,409 " style="fill:#404000;stroke:none"/><polygon points="402,409 349,370 328,391 384,434 " style="fill:#404000;stroke:none"/><polygon points="384,434 328,391 310,409 367,452 " style="fill:#404000;stroke:none"/><polygon points="400,319 368,276 338,297 374,345 " style="fill:#404000;stroke:none"/><polygon points="374,345 338,297 310,317 349,370 " style="fill:#404000;stroke:none"/><polygon points="349,370 310,317 285,335 328,391 " style="fill:#414100;stroke:none"/><polygon points="328,391 285,335 267,352 310,409 " style="fill:#414100;stroke:none"/><polygon points="368,276 352,231 320,246 338,297 " style="fill:#414100;stroke:none"/><polygon points="338,297 320,246 290,262 310,317 " style="fill:#414100;stroke:none"/><polygon points="310,317 290,262 264,277 285,335 " style="fill:#414100;stroke:none"/><polygon points="285,335 264,277 245,292 267,352 " style="fill:#414100;stroke:none"/><polygon points="352,231 353,189 321,199 320,246 " style="fill:#414100;stroke:none"/><polygon points="320,246 321,199 291,210 290,262 " style="fill:#414100;stroke:none"/><polygon points="290,262 291,210 266,222 264,277 " style="fill:#424200;stroke:none"/><polygon points="264,277 266,222 247,236 245,292 " style="fill:#424200;stroke:none"/><polygon points="353,189 372,155 343,161 321,199 " style="fill:#424200;stroke:none"/><polygon points="321,199 343,161 315,168 291,210 " style="fill:#424200;stroke:none"/><polygon points="291,210 315,168 291,178 266,222 " style="fill:#424200;stroke:none"/><polygon points="266,222 291,178 272,191 247,236 " style="fill:#424200;stroke:none"/><polygon points="372,155 406,136 381,139 343,161 " style="fill:#424200;stroke:none"/><polygon points="343,161 381,139 357,145 315,168 " style="fill:#434300;stroke:none"/><polygon points="315,168 357,145 335,153 291,178 " style="fill:#434300;stroke:none"/><polygon points="291,178 335,153 318,165 272,191 " style="fill:#434300;stroke:none"/><polygon points="406,136 448,135 428,138 381,139 " style="fill:#434300;stroke:none"/><polygon points="381,139 428,138 408,143 357,145 " style="fill:#434300;stroke:none"/><polygon points="357,145 408,143 390,151 335,153 " style="fill:#434300;stroke:none"/><polygon points="335,153 390,151 374,164 318,165 " style="fill:#434300;stroke:none"/><polygon points="448,135 493,151 478,156 428,138 " style="fill:#444400;stroke:none"/><polygon points="428,138 478,156 464,163 408,143 " style="fill:#444400;stroke:none"/><polygon points="408,143 464,163 449,172 390,151 " style="fill:#444400;stroke:none"/><polygon points="390,151 449,172 433,185 374,164 " style="fill:#444400;stroke:none"/><polygon points="493,151 536,183 526,192 478,156 " style="fill:#444400;stroke:none"/><polygon points="478,156 526,192 516,203 464,163 " style="fill:#444400;stroke:none"/><polygon points="464,163 516,203 505,214 449,172 " style="fill:#444400;stroke:none"/><polygon points="449,172 505,214 491,228 433,185 " style="fill:#444400;stroke:none"/><polygon points="536,183 568,226 563,241 526,192 " style="fill:#454500;stroke:none"/><polygon points="526,192 563,241 556,255 516,203 " style="fill:#454500;stroke:none"/><polygon points="516,203 556,255 547,270 505,214 " style="fill:#454500;stroke:none"/><polygon points="505,214 547,270 534,286 491,228 " style="fill:#454500;stroke:none"/><polygon points="568,226 584,271 581,291 563,241 " style="fill:#454500;stroke:none"/><polygon points="563,241 581,291 576,311 556,255 " style="fill:#454500;stroke:none"/><polygon points="556,255 576,311 568,329 547,270 " style="fill:#454500;stroke:none"/><polygon points="547,270 568,329 555,345 534,286 " style="fill:#464600;stroke:none"/><polygon points="584,271 583,313 580,338 581,291 " style="fill:#464600;stroke:none"/><polygon points="581,291 580,338 574,362 576,311 " style="fill:#464600;stroke:none"/><polygon points="576,311 574,362 566,384 568,329 " style="fill:#464600;stroke:none"/><polygon points="568,329 566,384 554,401 555,345 " style="fill:#464600;stroke:none"/><polygon points="583,313 564,347 558,376 580,338 " style="fill:#464600;stroke:none"/><polygon points="580,338 558,376 551,404 574,362 " style="fill:#464600;stroke:none"/><polygon points="574,362 551,404 541,428 566,384 " style="fill:#464600;stroke:none"/><polygon points="566,384 541,428 528,447 554,401 " style="fill:#474700;stroke:none"/><polygon points="528,447 483,472 466,480 510,455 " style="fill:#474700;stroke:none"/><polygon points="510,455 466,480 449,476 489,454 " style="fill:#474700;stroke:none"/><polygon points="489,454 449,476 435,470 471,450 " style="fill:#474700;stroke:none"/><polygon points="471,450 435,470 428,468 462,449 " style="fill:#474700;stroke:none"/><polygon points="483,472 427,474 412,481 466,480 " style="fill:#474700;stroke:none"/><polygon points="466,480 412,481 400,478 449,476 " style="fill:#474700;stroke:none"/><polygon points="449,476 400,478 391,471 435,470 " style="fill:#484800;stroke:none"/><polygon points="435,470 391,471 386,469 428,468 " style="fill:#484800;stroke:none"/><polygon points="427,474 367,452 355,461 412,481 " style="fill:#484800;stroke:none"/><polygon points="412,481 355,461 348,459 400,478 " style="fill:#484800;stroke:none"/><polygon points="400,478 348,459 344,454 391,471 " style="fill:#484800;stroke:none"/><polygon points="391,471 344,454 341,453 386,469 " style="fill:#484800;stroke:none"/><polygon points="367,452 310,409 300,419 355,461 " style="fill:#484800;stroke:none"/><polygon points="355,461 300,419 298,421 348,459 " style="fill:#494900;stroke:none"/><polygon points="348,459 298,421 299,420 344,454 " style="fill:#494900;stroke:none"/><polygon points="344,454 299,420 298,421 341,453 " style="fill:#494900;stroke:none"/><polygon points="310,409 267,352 258,364 300,419 " style="fill:#494900;stroke:none"/><polygon points="300,419 258,364 260,371 298,421 " style="fill:#494900;stroke:none"/><polygon points="298,421 260,371 265,375 299,420 " style="fill:#494900;stroke:none"/><polygon points="299,420 265,375 266,378 298,421 " style="fill:#494900;stroke:none"/><polygon points="267,352 245,292 238,307 258,364 " style="fill:#494900;stroke:none"/><polygon points="258,364 238,307 241,319 260,371 " style="fill:#505000;stroke:none"/><polygon points="260,371 241,319 248,328 265,375 " style="fill:#505000;stroke:none"/><polygon points="265,375 248,328 250,333 266,378 " style="fill:#505000;stroke:none"/><polygon points="245,292 247,236 239,253 238,307 " style="fill:#505000;stroke:none"/><polygon points="238,307 239,253 243,270 241,319 " style="fill:#505000;stroke:none"/><polygon points="241,319 243,270 249,284 248,328 " style="fill:#505000;stroke:none"/><polygon points="248,328 249,284 251,291 250,333 " style="fill:#505000;stroke:none"/><polygon points="247,236 272,191 264,209 239,253 " style="fill:#515100;stroke:none"/><polygon points="239,253 264,209 265,230 243,270 " style="fill:#515100;stroke:none"/><polygon points="243,270 265,230 269,248 249,284 " style="fill:#515100;stroke:none"/><polygon points="249,284 269,248 270,257 251,291 " style="fill:#515100;stroke:none"/><polygon points="272,191 318,165 307,185 264,209 " style="fill:#515100;stroke:none"/><polygon points="264,209 307,185 305,208 265,230 " style="fill:#515100;stroke:none"/><polygon points="265,230 305,208 305,228 269,248 " style="fill:#515100;stroke:none"/><polygon points="269,248 305,228 304,238 270,257 " style="fill:#515100;stroke:none"/><polygon points="318,165 374,164 361,183 307,185 " style="fill:#525200;stroke:none"/><polygon points="307,185 361,183 354,206 305,208 " style="fill:#525200;stroke:none"/><polygon points="305,208 354,206 349,226 305,228 " style="fill:#525200;stroke:none"/><polygon points="305,228 349,226 346,236 304,238 " style="fill:#525200;stroke:none"/><polygon points="374,164 433,185 419,204 361,183 " style="fill:#525200;stroke:none"/><polygon points="361,183 419,204 406,225 354,206 " style="fill:#525200;stroke:none"/><polygon points="354,206 406,225 396,243 349,226 " style="fill:#525200;stroke:none"/><polygon points="349,226 396,243 391,252 346,236 " style="fill:#535300;stroke:none"/><polygon points="433,185 491,228 474,245 419,204 " style="fill:#535300;stroke:none"/><polygon points="419,204 474,245 456,263 406,225 " style="fill:#535300;stroke:none"/><polygon points="406,225 456,263 442,277 396,243 " style="fill:#535300;stroke:none"/><polygon points="396,243 442,277 434,285 391,252 " style="fill:#535300;stroke:none"/><polygon points="491,228 534,286 515,300 474,245 " style="fill:#535300;stroke:none"/><polygon points="474,245 515,300 494,313 456,263 " style="fill:#535300;stroke:none"/><polygon points="456,263 494,313 476,323 442,277 " style="fill:#535300;stroke:none"/><polygon points="442,277 476,323 467,328 434,285 " style="fill:#545400;stroke:none"/><polygon points="534,286 555,345 536,358 515,300 " style="fill:#545400;stroke:none"/><polygon points="515,300 536,358 513,365 494,313 " style="fill:#545400;stroke:none"/><polygon points="494,313 513,365 493,370 476,323 " style="fill:#545400;stroke:none"/><polygon points="476,323 493,370 483,373 467,328 " style="fill:#545400;stroke:none"/><polygon points="555,345 554,401 534,412 536,358 " style="fill:#545400;stroke:none"/><polygon points="536,358 534,412 511,414 513,365 " style="fill:#545400;stroke:none"/><polygon points="513,365 511,414 491,414 493,370 " style="fill:#555500;stroke:none"/><polygon points="493,370 491,414 481,415 483,373 " style="fill:#555500;stroke:none"/><polygon points="554,401 528,447 510,455 534,412 " style="fill:#555500;stroke:none"/><polygon points="534,412 510,455 489,454 511,414 " style="fill:#555500;stroke:none"/><polygon points="511,414 489,454 471,450 491,414 " style="fill:#555500;stroke:none"/><polygon points="491,414 471,450 462,449 481,415 " style="fill:#555500;stroke:none"/><polygon points="462,449 428,468 424,468 458,449 " style="fill:#555500;stroke:none"/><polygon points="458,449 424,468 415,456 444,440 " style="fill:#565600;stroke:none"/><polygon points="444,440 415,456 395,423 414,412 " style="fill:#565600;stroke:none"/><polygon points="414,412 395,423 360,360 " style="fill:#565600;stroke:none"/><polygon points="428,468 386,469 383,469 424,468 " style="fill:#565600;stroke:none"/><polygon points="424,468 383,469 379,457 415,456 " style="fill:#565600;stroke:none"/><polygon points="415,456 379,457 371,424 395,423 " style="fill:#565600;stroke:none"/><polygon points="395,423 371,424 360,360 " style="fill:#565600;stroke:none"/><polygon points="386,469 341,453 339,453 383,469 " style="fill:#565600;stroke:none"/><polygon points="383,469 339,453 340,443 379,457 " style="fill:#575700;stroke:none"/><polygon points="379,457 340,443 346,415 371,424 " style="fill:#575700;stroke:none"/><polygon points="371,424 346,415 360,360 " style="fill:#575700;stroke:none"/><polygon points="341,453 298,421 297,422 339,453 " style="fill:#575700;stroke:none"/><polygon points="339,453 297,422 304,415 340,443 " style="fill:#575700;stroke:none"/><polygon points="340,443 304,415 322,397 346,415 " style="fill:#575700;stroke:none"/><polygon points="346,415 322,397 360,360 " style="fill:#575700;stroke:none"/><polygon points="298,421 266,378 266,380 297,422 " style="fill:#585800;stroke:none"/><polygon points="297,422 266,380 276,379 304,415 " style="fill:#585800;stroke:none"/><polygon points="304,415 276,379 304,373 322,397 " style="fill:#585800;stroke:none"/><polygon points="322,397 304,373 360,360 " style="fill:#585800;stroke:none"/><polygon points="266,378 250,333 250,336 266,380 " style="fill:#585800;stroke:none"/><polygon points="266,380 250,336 262,340 276,379 " style="fill:#585800;stroke:none"/><polygon points="276,379 262,340 295,348 304,373 " style="fill:#585800;stroke:none"/><polygon points="304,373 295,348 360,360 " style="fill:#585800;stroke:none"/><polygon points="250,333 251,291 251,295 250,336 " style="fill:#595900;stroke:none"/><polygon points="250,336 251,295 263,304 262,340 " style="fill:#595900;stroke:none"/><polygon points="262,340 263,304 296,324 295,348 " style="fill:#595900;stroke:none"/><polygon points="295,348 296,324 360,360 " style="fill:#595900;stroke:none"/><polygon points="251,291 270,257 270,261 251,295 " style="fill:#595900;stroke:none"/><polygon points="251,295 270,261 279,275 263,304 " style="fill:#595900;stroke:none"/><polygon points="263,304 279,275 307,305 296,324 " style="fill:#595900;stroke:none"/><polygon points="296,324 307,305 360,360 " style="fill:#606000;stroke:none"/><polygon points="270,257 304,238 303,243 270,261 " style="fill:#606000;stroke:none"/><polygon points="270,261 303,243 309,259 279,275 " style="fill:#606000;stroke:none"/><polygon points="279,275 309,259 326,295 307,305 " style="fill:#606000;stroke:none"/><polygon points="307,305 326,295 360,360 " style="fill:#606000;stroke:none"/><polygon points="304,238 346,236 344,242 303,243 " style="fill:#606000;stroke:none"/><polygon points="303,243 344,242 345,258 309,259 " style="fill:#606000;stroke:none"/><polygon points="309,259 345,258 349,294 326,295 " style="fill:#606000;stroke:none"/><polygon points="326,295 349,294 360,360 " style="fill:#616100;stroke:none"/><polygon points="346,236 391,252 388,257 344,242 " style="fill:#616100;stroke:none"/><polygon points="344,242 388,257 383,272 345,258 " style="fill:#616100;stroke:none"/><polygon points="345,258 383,272 374,303 349,294 " style="fill:#616100;stroke:none"/><polygon points="349,294 374,303 360,360 " style="fill:#616100;stroke:none"/><polygon points="391,252 434,285 430,289 388,257 " style="fill:#616100;stroke:none"/><polygon points="388,257 430,289 420,299 383,272 " style="fill:#616100;stroke:none"/><polygon points="383,272 420,299 398,321 374,303 " style="fill:#626200;stroke:none"/><polygon points="374,303 398,321 360,360 " style="fill:#626200;stroke:none"/><polygon points="434,285 467,328 462,331 430,289 " style="fill:#626200;stroke:none"/><polygon points="430,289 462,331 447,336 420,299 " style="fill:#626200;stroke:none"/><polygon points="420,299 447,336 416,345 398,321 " style="fill:#626200;stroke:none"/><polygon points="398,321 416,345 360,360 " style="fill:#626200;stroke:none"/><polygon points="467,328 483,373 477,375 462,331 " style="fill:#626200;stroke:none"/><polygon points="462,331 477,375 461,374 447,336 " style="fill:#636300;stroke:none"/><polygon points="447,336 461,374 425,370 416,345 " style="fill:#636300;stroke:none"/><polygon points="416,345 425,370 360,360 " style="fill:#636300;stroke:none"/><polygon points="483,373 481,415 476,416 477,375 " style="fill:#636300;stroke:none"/><polygon points="477,375 476,416 460,410 461,374 " style="fill:#636300;stroke:none"/><polygon points="461,374 460,410 424,393 425,370 " style="fill:#636300;stroke:none"/><polygon points="425,370 424,393 360,360 " style="fill:#636300;stroke:none"/><polygon points="481,415 462,449 458,449 476,416 " style="fill:#636300;stroke:none"/><polygon points="476,416 458,449 444,440 460,410 " style="fill:#646400;stroke:none"/><polygon points="460,410 444,440 414,412 424,393 " style="fill:#646400;stroke:none"/><polygon points="424,393 414,412 360,360 " style="fill:#646400;stroke:none"/><polygon points="349,166 344,173 312,141 319,136 " style="fill:#646400;stroke:none"/><polygon points="319,136 312,141 287,119 295,115 " style="fill:#646400;stroke:none"/><polygon points="295,115 287,119 269,108 279,104 " style="fill:#646400;stroke:none"/><polygon points="279,104 269,108 258,110 268,105 " style="fill:#646400;stroke:none"/><polygon points="344,173 347,174 311,138 312,141 " style="fill:#656500;stroke:none"/><polygon points="312,141 311,138 283,114 287,119 " style="fill:#656500;stroke:none"/><polygon points="287,119 283,114 263,102 269,108 " style="fill:#656500;stroke:none"/><polygon points="269,108 263,102 248,106 258,110 " style="fill:#656500;stroke:none"/><polygon points="347,174 355,170 315,130 311,138 " style="fill:#656500;stroke:none"/><polygon points="311,138 315,130 284,103 283,114 " style="fill:#656500;stroke:none"/><polygon points="283,114 284,103 261,92 263,102 " style="fill:#656500;stroke:none"/><polygon points="263,102 261,92 244,97 248,106 " style="fill:#656500;stroke:none"/><polygon points="355,170 365,162 323,120 315,130 " style="fill:#666600;stroke:none"/><polygon points="315,130 323,120 291,92 284,103 " style="fill:#666600;stroke:none"/><polygon points="284,103 291,92 267,80 261,92 " style="fill:#666600;stroke:none"/><polygon points="261,92 267,80 249,86 244,97 " style="fill:#666600;stroke:none"/><polygon points="365,162 370,155 330,115 323,120 " style="fill:#666600;stroke:none"/><polygon points="323,120 330,115 299,88 291,92 " style="fill:#666600;stroke:none"/><polygon points="291,92 299,88 276,76 267,80 " style="fill:#666600;stroke:none"/><polygon points="267,80 276,76 260,81 249,86 " style="fill:#676700;stroke:none"/><polygon points="370,155 367,153 331,118 330,115 " style="fill:#676700;stroke:none"/><polygon points="330,115 331,118 303,93 299,88 " style="fill:#676700;stroke:none"/><polygon points="299,88 303,93 283,82 276,76 " style="fill:#676700;stroke:none"/><polygon points="276,76 283,82 269,86 260,81 " style="fill:#676700;stroke:none"/><polygon points="367,153 359,157 327,126 331,118 " style="fill:#676700;stroke:none"/><polygon points="331,118 327,126 302,104 303,93 " style="fill:#676700;stroke:none"/><polygon points="303,93 302,104 285,93 283,82 " style="fill:#686800;stroke:none"/><polygon points="283,82 285,93 273,95 269,86 " style="fill:#686800;stroke:none"/><polygon points="359,157 349,166 319,136 327,126 " style="fill:#686800;stroke:none"/><polygon points="327,126 319,136 295,115 302,104 " style="fill:#686800;stroke:none"/><polygon points="302,104 295,115 279,104 285,93 " style="fill:#686800;stroke:none"/><polygon points="285,93 279,104 268,105 273,95 " style="fill:#686800;stroke:none"/><polygon points="268,105 258,110 250,123 261,117 " style="fill:#686800;stroke:none"/><polygon points="261,117 250,123 247,143 258,136 " style="fill:#686800;stroke:none"/><polygon points="258,136 247,143 251,170 261,161 " style="fill:#696900;stroke:none"/><polygon points="261,161 251,170 263,202 272,191 " style="fill:#696900;stroke:none"/><polygon points="258,110 248,106 240,121 250,123 " style="fill:#696900;stroke:none"/><polygon points="250,123 240,121 237,144 247,143 " style="fill:#696900;stroke:none"/><polygon points="247,143 237,144 243,174 251,170 " style="fill:#696900;stroke:none"/><polygon points="251,170 243,174 258,211 263,202 " style="fill:#696900;stroke:none"/><polygon points="248,106 244,97 234,115 240,121 " style="fill:#696900;stroke:none"/><polygon points="240,121 234,115 233,141 237,144 " style="fill:#707000;stroke:none"/><polygon points="237,144 233,141 241,174 243,174 " style="fill:#707000;stroke:none"/><polygon points="243,174 241,174 259,215 258,211 " style="fill:#707000;stroke:none"/><polygon points="244,97 249,86 238,105 234,115 " style="fill:#707000;stroke:none"/><polygon points="234,115 238,105 237,132 233,141 " style="fill:#707000;stroke:none"/><polygon points="233,141 237,132 246,167 241,174 " style="fill:#707000;stroke:none"/><polygon points="241,174 246,167 265,211 259,215 " style="fill:#707000;stroke:none"/><polygon points="249,86 260,81 250,99 238,105 " style="fill:#707000;stroke:none"/><polygon points="238,105 250,99 248,125 237,132 " style="fill:#717100;stroke:none"/><polygon points="237,132 248,125 256,159 246,167 " style="fill:#717100;stroke:none"/><polygon points="246,167 256,159 274,200 265,211 " style="fill:#717100;stroke:none"/><polygon points="260,81 269,86 260,101 250,99 " style="fill:#717100;stroke:none"/><polygon points="250,99 260,101 258,124 248,125 " style="fill:#717100;stroke:none"/><polygon points="248,125 258,124 264,154 256,159 " style="fill:#717100;stroke:none"/><polygon points="256,159 264,154 279,191 274,200 " style="fill:#717100;stroke:none"/><polygon points="269,86 273,95 265,108 260,101 " style="fill:#727200;stroke:none"/><polygon points="260,101 265,108 263,128 258,124 " style="fill:#727200;stroke:none"/><polygon points="258,124 263,128 266,154 264,154 " style="fill:#727200;stroke:none"/><polygon points="264,154 266,154 279,186 279,191 " style="fill:#727200;stroke:none"/><polygon points="273,95 268,105 261,117 265,108 " style="fill:#727200;stroke:none"/><polygon points="265,108 261,117 258,136 263,128 " style="fill:#727200;stroke:none"/><polygon points="263,128 258,136 261,161 266,154 " style="fill:#727200;stroke:none"/><polygon points="266,154 261,161 272,191 279,186 " style="fill:#727200;stroke:none"/><polygon points="533,404 510,426 551,451 568,430 " style="fill:#737300;stroke:none"/><polygon points="568,430 551,451 583,448 594,431 " style="fill:#737300;stroke:none"/><polygon points="594,431 583,448 610,436 616,424 " style="fill:#737300;stroke:none"/><polygon points="616,424 610,436 640,436 641,424 " style="fill:#737300;stroke:none"/><polygon points="510,426 492,445 542,471 551,451 " style="fill:#737300;stroke:none"/><polygon points="551,451 542,471 580,464 583,448 " style="fill:#737300;stroke:none"/><polygon points="583,448 580,464 614,449 610,436 " style="fill:#737300;stroke:none"/><polygon points="610,436 614,449 652,451 640,436 " style="fill:#747400;stroke:none"/><polygon points="492,445 484,452 543,481 542,471 " style="fill:#747400;stroke:none"/><polygon points="542,471 543,481 585,472 580,464 " style="fill:#747400;stroke:none"/><polygon points="580,464 585,472 622,456 614,449 " style="fill:#747400;stroke:none"/><polygon points="614,449 622,456 667,462 652,451 " style="fill:#747400;stroke:none"/><polygon points="484,452 495,441 556,472 543,481 " style="fill:#747400;stroke:none"/><polygon points="543,481 556,472 597,466 585,472 " style="fill:#747400;stroke:none"/><polygon points="585,472 597,466 633,453 622,456 " style="fill:#757500;stroke:none"/><polygon points="622,456 633,453 679,462 667,462 " style="fill:#757500;stroke:none"/><polygon points="495,441 518,418 573,450 556,472 " style="fill:#757500;stroke:none"/><polygon points="556,472 573,450 608,449 597,466 " style="fill:#757500;stroke:none"/><polygon points="597,466 608,449 638,440 633,453 " style="fill:#757500;stroke:none"/><polygon points="633,453 638,440 680,450 679,462 " style="fill:#757500;stroke:none"/><polygon points="518,418 536,400 582,431 573,450 " style="fill:#757500;stroke:none"/><polygon points="573,450 582,431 611,433 608,449 " style="fill:#757500;stroke:none"/><polygon points="608,449 611,433 635,428 638,440 " style="fill:#767600;stroke:none"/><polygon points="638,440 635,428 669,434 680,450 " style="fill:#767600;stroke:none"/><polygon points="536,400 544,393 582,421 582,431 " style="fill:#767600;stroke:none"/><polygon points="582,431 582,421 606,425 611,433 " style="fill:#767600;stroke:none"/><polygon points="611,433 606,425 626,420 635,428 " style="fill:#767600;stroke:none"/><polygon points="635,428 626,420 653,423 669,434 " style="fill:#767600;stroke:none"/><polygon points="544,393 533,404 568,430 582,421 " style="fill:#767600;stroke:none"/><polygon points="582,421 568,430 594,431 606,425 " style="fill:#777700;stroke:none"/><polygon points="606,425 594,431 616,424 626,420 " style="fill:#777700;stroke:none"/><polygon points="626,420 616,424 641,424 653,423 " style="fill:#777700;stroke:none"/><polygon points="641,424 640,436 648,439 647,426 " style="fill:#777700;stroke:none"/><polygon points="647,426 648,439 652,440 651,429 " style="fill:#777700;stroke:none"/><polygon points="651,429 652,440 653,440 652,431 " style="fill:#777700;stroke:none"/><polygon points="652,431 653,440 647,438 647,430 " style="fill:#777700;stroke:none"/><polygon points="640,436 652,451 660,455 648,439 " style="fill:#777700;stroke:none"/><polygon points="648,439 660,455 664,455 652,440 " style="fill:#787800;stroke:none"/><polygon points="652,440 664,455 663,452 653,440 " style="fill:#787800;stroke:none"/><polygon points="653,440 663,452 655,448 647,438 " style="fill:#787800;stroke:none"/><polygon points="652,451 667,462 677,467 660,455 " style="fill:#787800;stroke:none"/><polygon points="660,455 677,467 680,466 664,455 " style="fill:#787800;stroke:none"/><polygon points="664,455 680,466 676,462 663,452 " style="fill:#787800;stroke:none"/><polygon points="663,452 676,462 665,455 655,448 " style="fill:#787800;stroke:none"/><polygon points="667,462 679,462 689,467 677,467 " style="fill:#797900;stroke:none"/><polygon points="677,467 689,467 691,467 680,466 " style="fill:#797900;stroke:none"/><polygon points="680,466 691,467 685,463 676,462 " style="fill:#797900;stroke:none"/><polygon points="676,462 685,463 673,456 665,455 " style="fill:#797900;stroke:none"/><polygon points="679,462 680,450 689,455 689,467 " style="fill:#797900;stroke:none"/><polygon points="689,467 689,455 690,456 691,467 " style="fill:#797900;stroke:none"/><polygon points="691,467 690,456 684,453 685,463 " style="fill:#797900;stroke:none"/><polygon points="685,463 684,453 673,448 673,456 " style="fill:#797900;stroke:none"/><polygon points="680,450 669,434 676,439 689,455 " style="fill:#808000;stroke:none"/><polygon points="689,455 676,439 678,441 690,456 " style="fill:#808000;stroke:none"/><polygon points="690,456 678,441 674,441 684,453 " style="fill:#808000;stroke:none"/><polygon points="684,453 674,441 665,438 673,448 " style="fill:#808000;stroke:none"/><polygon points="669,434 653,423 660,427 676,439 " style="fill:#808000;stroke:none"/><polygon points="676,439 660,427 663,430 678,441 " style="fill:#808000;stroke:none"/><polygon points="678,441 663,430 661,432 674,441 " style="fill:#808000;stroke:none"/><polygon points="674,441 661,432 655,430 665,438 " style="fill:#818100;stroke:none"/><polygon points="653,423 641,424 647,426 660,427 " style="fill:#818100;stroke:none"/><polygon points="660,427 647,426 651,429 663,430 " style="fill:#818100;stroke:none"/><polygon points="663,430 651,429 652,431 661,432 " style="fill:#818100;stroke:none"/><polygon points="661,432 652,431 647,430 655,430 " style="fill:#818100;stroke:none"/><polygon points="514,245 522,241 502,217 " style="fill:#818100;stroke:none"/><polygon points="522,241 514,245 508,250 515,245 " style="fill:#818100;stroke:none"/><polygon points="515,245 508,250 496,246 500,244 " style="fill:#828200;stroke:none"/><polygon points="500,244 496,246 490,253 494,250 " style="fill:#828200;stroke:none"/><polygon points="504,246 514,245 502,217 " style="fill:#828200;stroke:none"/><polygon points="514,245 504,246 499,250 508,250 " style="fill:#828200;stroke:none"/><polygon points="508,250 499,250 490,247 496,246 " style="fill:#828200;stroke:none"/><polygon points="496,246 490,247 484,253 490,253 " style="fill:#828200;stroke:none"/><polygon points="494,242 504,246 502,217 " style="fill:#828200;stroke:none"/><polygon points="504,246 494,242 489,246 499,250 " style="fill:#828200;stroke:none"/><polygon points="499,250 489,246 484,244 490,247 " style="fill:#838300;stroke:none"/><polygon points="490,247 484,244 478,251 484,253 " style="fill:#838300;stroke:none"/><polygon points="484,235 494,242 502,217 " style="fill:#838300;stroke:none"/><polygon points="494,242 484,235 480,239 489,246 " style="fill:#838300;stroke:none"/><polygon points="489,246 480,239 479,240 484,244 " style="fill:#838300;stroke:none"/><polygon points="484,244 479,240 473,246 478,251 " style="fill:#838300;stroke:none"/><polygon points="477,225 484,235 502,217 " style="fill:#838300;stroke:none"/><polygon points="484,235 477,225 473,230 480,239 " style="fill:#848400;stroke:none"/><polygon points="480,239 473,230 475,235 479,240 " style="fill:#848400;stroke:none"/><polygon points="479,240 475,235 468,241 473,246 " style="fill:#848400;stroke:none"/><polygon points="473,215 477,225 502,217 " style="fill:#848400;stroke:none"/><polygon points="477,225 473,215 469,220 473,230 " style="fill:#848400;stroke:none"/><polygon points="473,230 469,220 472,229 475,235 " style="fill:#848400;stroke:none"/><polygon points="475,235 472,229 466,235 468,241 " style="fill:#848400;stroke:none"/><polygon points="474,205 473,215 502,217 " style="fill:#848400;stroke:none"/><polygon points="473,215 474,205 469,211 469,220 " style="fill:#858500;stroke:none"/><polygon points="469,220 469,211 473,223 472,229 " style="fill:#858500;stroke:none"/><polygon points="472,229 473,223 466,229 466,235 " style="fill:#858500;stroke:none"/><polygon points="478,197 474,205 502,217 " style="fill:#858500;stroke:none"/><polygon points="474,205 478,197 474,204 469,211 " style="fill:#858500;stroke:none"/><polygon points="469,211 474,204 475,219 473,223 " style="fill:#858500;stroke:none"/><polygon points="473,223 475,219 469,225 466,229 " style="fill:#858500;stroke:none"/><polygon points="486,193 478,197 502,217 " style="fill:#868600;stroke:none"/><polygon points="478,197 486,193 481,200 474,204 " style="fill:#868600;stroke:none"/><polygon points="474,204 481,200 480,216 475,219 " style="fill:#868600;stroke:none"/><polygon points="475,219 480,216 473,222 469,225 " style="fill:#868600;stroke:none"/><polygon points="495,193 486,193 502,217 " style="fill:#868600;stroke:none"/><polygon points="486,193 495,193 490,199 481,200 " style="fill:#868600;stroke:none"/><polygon points="481,200 490,199 485,216 480,216 " style="fill:#868600;stroke:none"/><polygon points="480,216 485,216 479,222 473,222 " style="fill:#878700;stroke:none"/><polygon points="505,196 495,193 502,217 " style="fill:#878700;stroke:none"/><polygon points="495,193 505,196 500,203 490,199 " style="fill:#878700;stroke:none"/><polygon points="490,199 500,203 491,218 485,216 " style="fill:#878700;stroke:none"/><polygon points="485,216 491,218 485,224 479,222 " style="fill:#878700;stroke:none"/><polygon points="515,204 505,196 502,217 " style="fill:#878700;stroke:none"/><polygon points="505,196 515,204 509,210 500,203 " style="fill:#878700;stroke:none"/><polygon points="500,203 509,210 497,222 491,218 " style="fill:#878700;stroke:none"/><polygon points="491,218 497,222 491,228 485,224 " style="fill:#888800;stroke:none"/><polygon points="523,214 515,204 502,217 " style="fill:#888800;stroke:none"/><polygon points="515,204 523,214 516,219 509,210 " style="fill:#888800;stroke:none"/><polygon points="509,210 516,219 501,228 497,222 " style="fill:#888800;stroke:none"/><polygon points="497,222 501,228 495,234 491,228 " style="fill:#888800;stroke:none"/><polygon points="526,224 523,214 502,217 " style="fill:#888800;stroke:none"/><polygon points="523,214 526,224 520,229 516,219 " style="fill:#888800;stroke:none"/><polygon points="516,219 520,229 503,234 501,228 " style="fill:#898900;stroke:none"/><polygon points="501,228 503,234 497,240 495,234 " style="fill:#898900;stroke:none"/><polygon points="526,233 526,224 502,217 " style="fill:#898900;stroke:none"/><polygon points="526,224 526,233 519,238 520,229 " style="fill:#898900;stroke:none"/><polygon points="520,229 519,238 503,239 503,234 " style="fill:#898900;stroke:none"/><polygon points="503,234 503,239 497,246 497,240 " style="fill:#898900;stroke:none"/><polygon points="522,241 526,233 502,217 " style="fill:#898900;stroke:none"/><polygon points="526,233 522,241 515,245 519,238 " style="fill:#898900;stroke:none"/><polygon points="519,238 515,245 500,244 503,239 " style="fill:#909000;stroke:none"/><polygon points="503,239 500,244 494,250 497,246 " style="fill:#909000;stroke:none"/><polygon points="494,250 490,253 496,276 507,271 " style="fill:#909000;stroke:none"/><polygon points="507,271 496,276 509,307 528,297 " style="fill:#909000;stroke:none"/><polygon points="528,297 509,307 520,336 546,321 " style="fill:#909000;stroke:none"/><polygon points="546,321 520,336 522,351 551,334 " style="fill:#909000;stroke:none"/><polygon points="490,253 484,253 484,277 496,276 " style="fill:#909000;stroke:none"/><polygon points="496,276 484,277 486,308 509,307 " style="fill:#919100;stroke:none"/><polygon points="509,307 486,308 487,337 520,336 " style="fill:#919100;stroke:none"/><polygon points="520,336 487,337 485,352 522,351 " style="fill:#919100;stroke:none"/><polygon points="484,253 478,251 470,272 484,277 " style="fill:#919100;stroke:none"/><polygon points="484,277 470,272 461,299 486,308 " style="fill:#919100;stroke:none"/><polygon points="486,308 461,299 453,324 487,337 " style="fill:#919100;stroke:none"/><polygon points="487,337 453,324 446,338 485,352 " style="fill:#919100;stroke:none"/><polygon points="478,251 473,246 457,262 470,272 " style="fill:#919100;stroke:none"/><polygon points="470,272 457,262 438,281 461,299 " style="fill:#929200;stroke:none"/><polygon points="461,299 438,281 420,299 453,324 " style="fill:#929200;stroke:none"/><polygon points="453,324 420,299 409,310 446,338 " style="fill:#929200;stroke:none"/><polygon points="473,246 468,241 447,249 457,262 " style="fill:#929200;stroke:none"/><polygon points="457,262 447,249 420,258 438,281 " style="fill:#929200;stroke:none"/><polygon points="438,281 420,258 395,266 420,299 " style="fill:#929200;stroke:none"/><polygon points="420,299 395,266 381,273 409,310 " style="fill:#929200;stroke:none"/><polygon points="468,241 466,235 442,235 447,249 " style="fill:#939300;stroke:none"/><polygon points="447,249 442,235 411,233 420,258 " style="fill:#939300;stroke:none"/><polygon points="420,258 411,233 382,232 395,266 " style="fill:#939300;stroke:none"/><polygon points="395,266 382,232 367,234 381,273 " style="fill:#939300;stroke:none"/><polygon points="466,235 466,229 443,223 442,235 " style="fill:#939300;stroke:none"/><polygon points="442,235 443,223 412,210 411,233 " style="fill:#939300;stroke:none"/><polygon points="411,233 412,210 383,199 382,232 " style="fill:#939300;stroke:none"/><polygon points="382,232 383,199 368,197 367,234 " style="fill:#949400;stroke:none"/><polygon points="466,229 469,225 448,212 443,223 " style="fill:#949400;stroke:none"/><polygon points="443,223 448,212 422,191 412,210 " style="fill:#949400;stroke:none"/><polygon points="412,210 422,191 398,173 383,199 " style="fill:#949400;stroke:none"/><polygon points="383,199 398,173 385,168 368,197 " style="fill:#949400;stroke:none"/><polygon points="469,225 473,222 459,206 448,212 " style="fill:#949400;stroke:none"/><polygon points="448,212 459,206 441,181 422,191 " style="fill:#949400;stroke:none"/><polygon points="422,191 441,181 424,158 398,173 " style="fill:#949400;stroke:none"/><polygon points="398,173 424,158 414,151 385,168 " style="fill:#959500;stroke:none"/><polygon points="473,222 479,222 472,206 459,206 " style="fill:#959500;stroke:none"/><polygon points="459,206 472,206 464,180 441,181 " style="fill:#959500;stroke:none"/><polygon points="441,181 464,180 457,157 424,158 " style="fill:#959500;stroke:none"/><polygon points="424,158 457,157 451,150 414,151 " style="fill:#959500;stroke:none"/><polygon points="479,222 485,224 485,211 472,206 " style="fill:#959500;stroke:none"/><polygon points="472,206 485,211 489,189 464,180 " style="fill:#959500;stroke:none"/><polygon points="464,180 489,189 491,170 457,157 " style="fill:#969600;stroke:none"/><polygon points="457,157 491,170 490,164 451,150 " style="fill:#969600;stroke:none"/><polygon points="485,224 491,228 498,221 485,211 " style="fill:#969600;stroke:none"/><polygon points="485,211 498,221 512,207 489,189 " style="fill:#969600;stroke:none"/><polygon points="489,189 512,207 524,195 491,170 " style="fill:#969600;stroke:none"/><polygon points="491,170 524,195 527,192 490,164 " style="fill:#969600;stroke:none"/><polygon points="491,228 495,234 508,234 498,221 " style="fill:#969600;stroke:none"/><polygon points="498,221 508,234 530,230 512,207 " style="fill:#969600;stroke:none"/><polygon points="512,207 530,230 549,228 524,195 " style="fill:#979700;stroke:none"/><polygon points="524,195 549,228 555,229 527,192 " style="fill:#979700;stroke:none"/><polygon points="495,234 497,240 513,247 508,234 " style="fill:#979700;stroke:none"/><polygon points="508,234 513,247 539,255 530,230 " style="fill:#979700;stroke:none"/><polygon points="530,230 539,255 562,262 549,228 " style="fill:#979700;stroke:none"/><polygon points="549,228 562,262 569,268 555,229 " style="fill:#979700;stroke:none"/><polygon points="497,240 497,246 513,260 513,247 " style="fill:#979700;stroke:none"/><polygon points="513,247 513,260 538,278 539,255 " style="fill:#989800;stroke:none"/><polygon points="539,255 538,278 561,295 562,262 " style="fill:#989800;stroke:none"/><polygon points="562,262 561,295 568,305 569,268 " style="fill:#989800;stroke:none"/><polygon points="497,246 494,250 507,271 513,260 " style="fill:#989800;stroke:none"/><polygon points="513,260 507,271 528,297 538,278 " style="fill:#989800;stroke:none"/><polygon points="538,278 528,297 546,321 561,295 " style="fill:#989800;stroke:none"/><polygon points="561,295 546,321 551,334 568,305 " style="fill:#989800;stroke:none"/></svg>